<?xml version="1.0" standalone="no"?><!DOCTYPE svg PUBLIC "-//W3C//DTD SVG 1.1//EN" "http://www.w3.org/Graphics/SVG/1.1/DTD/svg11.dtd"><svg t="1538203020165" class="icon" style="" viewBox="0 0 1024 1024" version="1.1" xmlns="http://www.w3.org/2000/svg" p-id="5111" xmlns:xlink="http://www.w3.org/1999/xlink" width="200" height="200"><defs><style type="text/css"></style></defs><path d="M512 2.56C231.424 2.56 3.584 229.888 3.584 510.976S231.424 1018.88 512 1018.88s508.416-227.328 508.416-508.416S793.088 2.56 512 2.56z m0 941.568c-239.616 0-433.664-194.048-433.664-433.664S272.384 76.8 512 76.8s433.664 194.048 433.664 433.664-194.048 433.664-433.664 433.664z" fill="#8a8a8a" p-id="5112"></path><path d="M409.6 730.112c-19.968 0-35.84-15.872-35.84-35.84v-332.8c0-19.968 15.872-35.84 35.84-35.84s35.84 15.872 35.84 35.84v332.8c0 19.968-15.872 35.84-35.84 35.84zM614.4 730.112c-19.968 0-35.84-15.872-35.84-35.84v-332.8c0-19.968 15.872-35.84 35.84-35.84s35.84 15.872 35.84 35.84v332.8c0 19.968-15.872 35.84-35.84 35.84z" fill="#8a8a8a" p-id="5113"></path></svg>