<?xml version="1.0" standalone="no"?><!DOCTYPE svg PUBLIC "-//W3C//DTD SVG 1.1//EN" "http://www.w3.org/Graphics/SVG/1.1/DTD/svg11.dtd"><svg t="1537259570703" class="icon" style="" viewBox="0 0 1024 1024" version="1.1" xmlns="http://www.w3.org/2000/svg" p-id="1420" xmlns:xlink="http://www.w3.org/1999/xlink" width="200" height="200"><defs><style type="text/css"></style></defs><path d="M617.892 337.285c-7.207-57.948-6.466-255.863 0-292.607h-87.807c2.896 63.58 11.808 222.207 0 292.607h87.807z" p-id="1421" fill="#bfbfbf"></path><path d="M530.081 365.695c2.896 63.549 11.808 222.207 0 292.607h87.807c-7.207-57.948-6.466-255.829 0-292.607h-87.807z" p-id="1422" fill="#bfbfbf"></path><path d="M530.081 686.715c2.896 63.549 11.808 222.207 0 292.607h87.807c-7.207-57.948-6.466-255.863 0-292.607h-87.807z" p-id="1423" fill="#bfbfbf"></path><path d="M383.329 442.661c2.896 46.913 11.776 163.775 0 215.642h87.807c-7.241-42.729-6.5-188.486 0-215.642h-87.807z" p-id="1424" fill="#bfbfbf"></path><path d="M383.329 686.715c2.896 63.549 11.776 222.207 0 292.607h87.807c-7.241-57.948-6.5-255.863 0-292.607h-87.807z" p-id="1425" fill="#bfbfbf"></path><path d="M534.909 349.835l-2.638-7.015c-70.337-31.822-116.799-63.709-142.731-83.981 7.69-7.111 34.685-34.237 42.987-72.139 9.653-44.338 1.35-138.066 1.35-138.066s-46.784 81.662-56.436 125.937c-7.724 35.104 2.832 68.277 7.659 80.732-11.391-9.137-17.632-14.994-19.562-16.894-4.503-19.082-16.442-56.403-45.206-85.2-40.157-40.22-144.761-94.823-144.761-94.823s54.635 104.604 94.823 144.794c32.883 32.916 76.9 43.79 91.958 46.751 6.148 5.696 17.567 15.571 35.554 28.637-15.22-4.698-34.751-8.396-55.664-5.856-45.014 5.472-130.667 44.53-130.667 44.53s92.57 17.053 137.618 11.454c34.751-4.246 62.163-24.519 72.912-33.558 26.483 17.214 61.359 37.162 105.73 57.242l2.189 0.481 4.892-3.024z" p-id="1426" fill="#bfbfbf"></path><path d="M388.54 673.039l-4.31-6.113c-62.196-10.811-114.772-40.479-149.072-64.158 6.305-9.653 17.503-29.923 18.115-53.893 0.803-33.463-18.276-100.229-18.276-100.229s-22.523 65.735-23.359 99.165c-0.45 18.373 5.344 34.751 10.682 45.98-17.763-13.193-28.413-23.041-28.702-23.297l-0.353-0.129c-4.054-14.961-13.127-39.222-32.208-58.304-29.601-29.697-106.823-69.95-106.823-69.95s40.348 77.156 70.014 106.823c24.39 24.485 57.209 32.468 68.116 34.526 10.682 9.14 35.169 28.797 68.887 48.199-11.004-4.827-31.694-12-54.442-9.235-33.174 4.084-96.398 32.883-96.398 32.883s68.342 12.583 101.579 8.463c32.080-3.957 55.438-26.128 56.954-27.609 31.596 17.343 70.337 33.721 113.452 41.218l0.899 0.096 5.244-4.439z" p-id="1427" fill="#bfbfbf"></path><path d="M729.156 620.851c32.594-21.813 50.772-38.772 55.213-43.213 16.313-3.314 58.688-14.511 90.574-46.462 40.189-40.22 94.823-144.794 94.823-144.794s-104.604 54.602-144.794 94.788c-29.633 29.697-41.474 68.629-45.691 87.098l-0.899 0.386c-0.257 0.257-13.869 14.061-40.637 33.366 7.98-14.576 19.466-40.766 18.661-70.722-1.094-45.305-31.596-134.334-31.596-134.334s-25.87 90.447-24.743 135.785c0.899 35.94 19.207 65.675 26.867 76.611-26.705 18.212-63.322 39.867-111.103 59.621l-2.865 6.917 4.892 3.281 2.027-0.386c33.463-13.835 61.038-28.413 84.237-42.215 9.846 8.494 37.87 29.986 73.908 34.396 45.045 5.599 137.618-11.454 137.618-11.454s-85.685-39.029-130.667-44.53c-20.946-2.572-40.606 1.158-55.826 5.856z" p-id="1428" fill="#bfbfbf"></path></svg>